<svg width="56" height="56" viewBox="0 0 56 56" fill="none" xmlns="http://www.w3.org/2000/svg">
<path d="M39.9314 0.108937C42.1873 0.623836 43.5708 2.80646 43.0622 5.05012C42.5556 7.28942 40.3523 8.68687 38.1037 8.1957C35.8239 7.6997 34.3771 5.41777 34.9241 3.18186C35.4702 0.948857 37.6784 -0.405478 39.9314 0.108937Z" fill="#33A2DB"/>
<path d="M29.0615 6.7179C27.3264 6.34202 26.2702 4.70142 26.6648 2.993C27.0467 1.33689 28.7011 0.283846 30.3671 0.637445C32.0613 0.996373 33.1579 2.70915 32.7667 4.38657C32.3794 6.04703 30.7363 7.08167 29.0615 6.7179Z" fill="#33A2DB"/>
<path d="M25.0723 5.79358C24.7781 7.13242 23.4726 7.98202 22.1373 7.70496C20.7967 7.42595 19.9369 6.12587 20.2093 4.78946C20.4913 3.40461 21.8368 2.52787 23.2032 2.8403C24.5336 3.14304 25.3666 4.45862 25.0723 5.79358Z" fill="#33A2DB"/>
<path d="M16.567 10.1309C15.5387 9.86204 14.9264 8.82982 15.1914 7.81213C15.4564 6.79638 16.4891 6.18751 17.5248 6.43455C18.5896 6.68982 19.2385 7.78404 18.937 8.81868C18.6437 9.8291 17.6076 10.4031 16.567 10.1309Z" fill="#33A2DB"/>
<path d="M14.301 11.9429C14.0837 12.8603 13.223 13.3854 12.2979 13.167C11.3957 12.9533 10.8311 12.0529 11.0455 11.1694C11.2578 10.2936 12.1966 9.72105 13.0739 9.93224C13.9683 10.1478 14.5144 11.0429 14.301 11.9429Z" fill="#33A2DB"/>
<mask id="mask0_91_7428" style="mask-type:luminance" maskUnits="userSpaceOnUse" x="13" y="8" width="33" height="48">
<path d="M17.501 26.4816C14.8978 23.0304 14.5763 18.5189 16.7021 15.2556C18.5557 12.4089 21.5847 11.5428 22.7928 11.3025C23.2298 11.2183 23.6541 11.4987 23.7403 11.9327C23.828 12.3643 23.5459 12.7833 23.1124 12.8715C23.0973 12.8787 23.0787 12.8797 23.0632 12.8816C22.0202 13.0943 19.5509 13.8247 18.052 16.126C16.2924 18.826 16.5896 22.6022 18.7885 25.5201C19.0565 25.8742 18.9844 26.3765 18.6273 26.6405C18.5289 26.7156 18.4193 26.7631 18.3072 26.7853C18.2537 26.7965 18.1996 26.8018 18.145 26.8018C17.9019 26.8018 17.6603 26.6919 17.501 26.4816ZM24.3687 11.6721C24.2805 11.2488 24.5543 10.8341 24.982 10.747C25.4087 10.6593 25.8262 10.9339 25.9144 11.3573C26.0016 11.7826 25.7259 12.1991 25.3006 12.2868C25.247 12.2975 25.1939 12.3023 25.1418 12.3023C24.773 12.3018 24.4447 12.0446 24.3687 11.6721ZM19.1091 10.8327C18.9853 10.8501 18.8616 10.8656 18.7403 10.8889C18.0841 11.2953 17.446 11.7496 16.8171 12.264C14.5626 14.1023 13.3545 16.4757 13.3229 19.4833C13.3073 20.9442 13.5104 22.3348 13.9323 23.6514C13.9917 23.7342 14.0521 23.8195 14.112 23.9033C14.3897 24.6705 14.7429 25.4155 15.1759 26.1368C16.1453 27.7478 17.16 29.3322 18.1811 30.9113C18.6434 31.6287 19.0248 32.3712 19.3142 33.1312C19.4993 34.1136 19.5382 35.1279 19.4442 36.164C19.4135 36.5224 19.3634 36.8828 19.301 37.2456C18.9844 39.0964 18.6667 40.9497 18.4081 42.8068C18.3866 42.9545 18.3686 43.1023 18.3525 43.2476C18.1119 45.4438 18.3978 47.5581 19.2216 49.6158C20.3211 52.3675 22.2755 54.0324 25.0078 54.7536C25.4078 54.8587 25.8033 54.9488 26.1989 55.0224C26.9052 55.2002 27.6052 55.3373 28.2974 55.4298C28.3062 55.4269 28.313 55.4245 28.3218 55.4216C28.4485 55.3852 28.5707 55.3421 28.6915 55.3014C32.0128 55.4206 35.2226 54.5167 38.3481 52.8514C40.471 51.717 42.5043 50.4489 44.1119 48.5487C46.2231 46.0502 46.2981 43.7378 44.2614 41.2912C43.6086 40.5006 42.8745 39.7479 42.0649 39.1366C40.6274 38.0458 39.4305 38.3853 38.5083 40.024C38.2881 40.4173 38.1293 40.8416 37.9374 41.2539C37.0917 43.0616 36.0337 44.7022 34.4198 45.8754C33.7558 46.3583 33.1128 46.6174 32.5073 46.6542C32.1161 46.4464 31.7517 46.134 31.4195 45.7073L31.4185 45.7034C31.3226 45.5794 31.23 45.4496 31.1423 45.3081C30.8617 44.8659 30.6152 44.3927 30.4004 43.9073C28.3617 40.1325 26.3138 35.0775 25.5178 28.9249C25.5144 28.9132 25.5125 28.9026 25.5125 28.891C25.4828 28.7025 25.4584 28.5146 25.4321 28.3237C25.2075 26.5659 25.1393 24.9166 25.172 23.3961C25.1691 23.3898 25.171 23.3845 25.171 23.3801C25.1695 23.352 25.171 23.3244 25.172 23.2992C25.1915 22.423 25.2426 21.5952 25.3162 20.8148C25.3162 20.8115 25.3171 20.8081 25.3191 20.8027C25.324 20.2573 25.36 19.7148 25.4487 19.1849C25.4915 18.9204 25.55 18.6777 25.6245 18.452C25.9041 17.601 26.4035 17.0149 27.0835 16.7063C27.7129 16.4191 28.4952 16.3639 29.4076 16.5513C31.4117 16.9592 33.0636 18.033 34.5732 19.352C34.9147 19.6499 35.2343 19.9803 35.5977 20.2491C37.1146 21.3801 38.3977 21.1902 39.3632 19.5739C39.9059 18.6676 40.321 17.6625 40.6469 16.6521C41.6606 13.5288 40.7024 11.4173 37.705 9.99083C35.4257 8.90678 32.9793 8.58806 30.4978 8.43257C29.9522 8.39866 29.4115 8.38123 28.8762 8.38123C25.3849 8.38316 22.1059 9.12379 19.1091 10.8327Z" fill="white"/>
</mask>
<g mask="url(#mask0_91_7428)">
<path d="M39.4017 -4.95581L65.5371 45.5968L20.2031 68.7701L-5.93274 18.2171L39.4017 -4.95581Z" fill="url(#paint0_linear_91_7428)"/>
</g>
<defs>
<linearGradient id="paint0_linear_91_7428" x1="22.2592" y1="17.432" x2="38.9901" y2="50.1626" gradientUnits="userSpaceOnUse">
<stop stop-color="#33A2DB"/>
<stop offset="1" stop-color="#134B97"/>
</linearGradient>
</defs>
</svg>
