<svg width="140" height="56" viewBox="0 0 140 56" fill="none" xmlns="http://www.w3.org/2000/svg">
<path d="M28.9314 0.108937C31.1873 0.623836 32.5708 2.80646 32.0622 5.05012C31.5556 7.28942 29.3523 8.68687 27.1037 8.1957C24.8239 7.6997 23.3771 5.41777 23.9241 3.18186C24.4702 0.948857 26.6784 -0.405478 28.9314 0.108937Z" fill="#33A2DB"/>
<path d="M18.0615 6.7179C16.3264 6.34202 15.2702 4.70142 15.6648 2.993C16.0467 1.33689 17.7011 0.283846 19.3671 0.637445C21.0613 0.996373 22.1579 2.70915 21.7667 4.38657C21.3794 6.04703 19.7363 7.08167 18.0615 6.7179Z" fill="#33A2DB"/>
<path d="M14.0723 5.79358C13.7781 7.13242 12.4726 7.98202 11.1373 7.70496C9.79675 7.42595 8.93695 6.12587 9.20926 4.78946C9.49131 3.40461 10.8368 2.52787 12.2032 2.8403C13.5336 3.14304 14.3666 4.45862 14.0723 5.79358Z" fill="#33A2DB"/>
<path d="M5.56704 10.1309C4.5387 9.86204 3.92636 8.82982 4.19136 7.81213C4.45637 6.79638 5.4891 6.18751 6.52475 6.43455C7.58963 6.68982 8.2385 7.78404 7.93696 8.81868C7.64371 9.8291 6.60757 10.4031 5.56704 10.1309Z" fill="#33A2DB"/>
<path d="M3.30099 11.9429C3.08373 12.8603 2.22296 13.3854 1.29789 13.167C0.395709 12.9533 -0.168882 12.0529 0.0454578 11.1694C0.25785 10.2936 1.19656 9.72105 2.07389 9.93224C2.96828 10.1478 3.51436 11.0429 3.30099 11.9429Z" fill="#33A2DB"/>
<mask id="mask0_91_7451" style="mask-type:luminance" maskUnits="userSpaceOnUse" x="2" y="8" width="33" height="48">
<path d="M6.50103 26.4816C3.89777 23.0304 3.57626 18.5189 5.70213 15.2556C7.55568 12.4089 10.5847 11.5428 11.7928 11.3025C12.2298 11.2183 12.6541 11.4987 12.7403 11.9327C12.828 12.3643 12.5459 12.7833 12.1124 12.8715C12.0973 12.8787 12.0787 12.8797 12.0632 12.8816C11.0202 13.0943 8.5509 13.8247 7.05198 16.126C5.29244 18.826 5.5896 22.6022 7.78854 25.5201C8.05646 25.8742 7.98436 26.3765 7.62729 26.6405C7.52889 26.7156 7.41928 26.7631 7.30724 26.7853C7.25366 26.7965 7.19958 26.8018 7.14502 26.8018C6.90194 26.8018 6.66032 26.6919 6.50103 26.4816ZM13.3687 11.6721C13.2805 11.2488 13.5543 10.8341 13.982 10.747C14.4087 10.6593 14.8262 10.9339 14.9144 11.3573C15.0016 11.7826 14.7259 12.1991 14.3006 12.2868C14.247 12.2975 14.1939 12.3023 14.1418 12.3023C13.773 12.3018 13.4447 12.0446 13.3687 11.6721ZM8.10907 10.8327C7.98533 10.8501 7.8616 10.8656 7.7403 10.8889C7.08413 11.2953 6.44598 11.7496 5.81709 12.264C3.56262 14.1023 2.35452 16.4757 2.32285 19.4833C2.30727 20.9442 2.5104 22.3348 2.93226 23.6514C2.99169 23.7342 3.0521 23.8195 3.11202 23.9033C3.38969 24.6705 3.74286 25.4155 4.17592 26.1368C5.14533 27.7478 6.16003 29.3322 7.18107 30.9113C7.64336 31.6287 8.0248 32.3712 8.31415 33.1312C8.49927 34.1136 8.53824 35.1279 8.44422 36.164C8.41353 36.5224 8.36335 36.8828 8.301 37.2456C7.98436 39.0964 7.66675 40.9497 7.40808 42.8068C7.38665 42.9545 7.36862 43.1023 7.35255 43.2476C7.1119 45.4438 7.39785 47.5581 8.2216 49.6158C9.32107 52.3675 11.2755 54.0324 14.0078 54.7536C14.4078 54.8587 14.8033 54.9488 15.1989 55.0224C15.9052 55.2002 16.6052 55.3373 17.2974 55.4298C17.3062 55.4269 17.313 55.4245 17.3218 55.4216C17.4485 55.3852 17.5707 55.3421 17.6915 55.3014C21.0128 55.4206 24.2226 54.5167 27.3481 52.8514C29.471 51.717 31.5043 50.4489 33.1119 48.5487C35.2231 46.0502 35.2981 43.7378 33.2614 41.2912C32.6086 40.5006 31.8745 39.7479 31.0649 39.1366C29.6274 38.0458 28.4305 38.3853 27.5083 40.024C27.2881 40.4173 27.1293 40.8416 26.9374 41.2539C26.0917 43.0616 25.0337 44.7022 23.4198 45.8754C22.7558 46.3583 22.1128 46.6174 21.5073 46.6542C21.1161 46.4464 20.7517 46.134 20.4195 45.7073L20.4185 45.7034C20.3226 45.5794 20.23 45.4496 20.1423 45.3081C19.8617 44.8659 19.6152 44.3927 19.4004 43.9073C17.3617 40.1325 15.3138 35.0775 14.5178 28.9249C14.5144 28.9132 14.5125 28.9026 14.5125 28.891C14.4828 28.7025 14.4584 28.5146 14.4321 28.3237C14.2075 26.5659 14.1393 24.9166 14.172 23.3961C14.1691 23.3898 14.171 23.3845 14.171 23.3801C14.1695 23.352 14.171 23.3244 14.172 23.2992C14.1915 22.423 14.2426 21.5952 14.3162 20.8148C14.3162 20.8115 14.3171 20.8081 14.3191 20.8027C14.324 20.2573 14.36 19.7148 14.4487 19.1849C14.4915 18.9204 14.55 18.6777 14.6245 18.452C14.9041 17.601 15.4035 17.0149 16.0835 16.7063C16.7129 16.4191 17.4952 16.3639 18.4076 16.5513C20.4117 16.9592 22.0636 18.033 23.5732 19.352C23.9147 19.6499 24.2343 19.9803 24.5977 20.2491C26.1146 21.3801 27.3977 21.1902 28.3632 19.5739C28.9059 18.6676 29.321 17.6625 29.6469 16.6521C30.6606 13.5288 29.7024 11.4173 26.705 9.99083C24.4257 8.90678 21.9793 8.58806 19.4978 8.43257C18.9522 8.39866 18.4115 8.38123 17.8762 8.38123C14.3849 8.38316 11.1059 9.12379 8.10907 10.8327Z" fill="white"/>
</mask>
<g mask="url(#mask0_91_7451)">
<path d="M28.4017 -4.95581L54.5371 45.5968L9.20313 68.7701L-16.9327 18.2171L28.4017 -4.95581Z" fill="url(#paint0_linear_91_7451)"/>
</g>
<mask id="mask1_91_7451" style="mask-type:luminance" maskUnits="userSpaceOnUse" x="36" y="15" width="26" height="39">
<path d="M39.3973 39.0082C39.1854 38.8189 39.0217 38.5762 38.9077 38.2826C38.4946 37.1037 37.9636 31.6761 37.9003 30.4284C37.8594 29.6306 37.6353 25.2411 37.6431 24.4385C37.6782 24.1343 37.7478 22.5315 37.8336 22.2767C37.9797 21.2183 39.4864 21.1447 39.7909 22.1774C39.8562 22.4734 39.6852 24.0345 39.6525 24.3862C39.6321 24.9374 39.7826 27.8825 39.8113 28.4322C39.9414 30.9762 40.1738 33.5168 40.5537 36.0477C40.5659 36.2967 40.7798 37.4892 40.8913 37.7329C41.244 38.458 40.6741 39.1996 39.9853 39.1996C39.7928 39.1991 39.5907 39.141 39.3973 39.0082ZM38.7309 20.1808C38.3446 19.4498 38.8541 18.6245 39.6584 18.6317C40.5148 18.64 41.0136 19.5138 40.5455 20.1895C40.3111 20.5014 39.956 20.6564 39.6106 20.6564C39.2628 20.656 38.9248 20.4976 38.7309 20.1808ZM37.1959 20.609C36.3351 23.4547 36.4939 26.5494 36.7482 29.5376C37.0064 32.627 37.3172 35.7125 37.6752 38.7961C37.9982 41.1802 38.2759 43.6191 38.8039 46.0429C39.2604 48.1209 40.5757 50.2077 42.3459 51.3668C44.3222 52.616 46.8096 53.0428 49.1244 53.0243C52.5933 53.0001 56.1616 51.9166 59.1434 50.2159C61.7345 48.7322 61.9741 44.6179 59.6139 42.7346C58.9855 42.2681 57.9825 42.3185 57.2416 42.5554C55.7022 42.9855 54.0635 43.4186 52.5807 42.9429C51.8626 42.6794 51.4179 41.8506 51.2298 41.1119C50.9721 40.025 51.0598 38.8198 51.055 37.7159C51.0389 34.4652 50.8698 31.1709 50.6536 27.9319C50.5313 25.5855 50.3126 23.2455 49.8902 20.9161C49.6159 19.477 48.8317 17.9686 47.6299 17.0778C46.6892 16.3755 45.5094 15.9865 44.3495 15.8935C44.1196 15.8693 43.8897 15.8577 43.6617 15.8577C40.7291 15.8562 38.0318 17.8277 37.1959 20.609Z" fill="white"/>
</mask>
<g mask="url(#mask1_91_7451)">
<path d="M34.4307 15.9531L61.9071 14.5586L63.8781 52.9464L36.4021 54.3409L34.4307 15.9531Z" fill="url(#paint1_linear_91_7451)"/>
</g>
<mask id="mask2_91_7451" style="mask-type:luminance" maskUnits="userSpaceOnUse" x="62" y="15" width="15" height="38">
<path d="M64.0164 39.0984C63.9672 38.9487 63.9272 37.9495 63.9272 37.7489C63.7431 35.9969 63.7095 34.1998 63.6252 32.4507C63.4912 30.3994 63.462 28.3025 63.5331 26.2521C63.538 25.6529 63.8132 22.9583 63.9199 22.4599C64.1255 21.6611 64.4972 19.6645 65.2537 19.3216C66.1125 18.9307 67.0586 19.8379 66.6498 20.6851C66.4959 20.981 66.2918 21.2785 66.1866 21.5797C65.4096 24.3703 65.4325 27.3202 65.5031 30.2177C65.5421 31.466 65.7394 37.5658 66.0283 38.7671C66.1905 39.5242 65.6293 39.9611 65.0545 39.9611C64.6029 39.9621 64.143 39.6932 64.0164 39.0984ZM67.1175 18.89C66.3663 18.5354 66.3766 17.4339 67.136 17.09C67.8414 16.7979 68.5901 17.2557 68.5823 18.0026C68.5784 18.5819 68.1249 19.0086 67.5959 19.0086C67.44 19.0086 67.2773 18.9709 67.1175 18.89ZM63.5434 19.6059C63.1322 20.5025 62.9223 21.4499 62.7635 22.3983C61.8067 27.885 62.308 33.5871 62.5569 39.1851C62.6899 41.1871 63.0265 48.0832 64.1187 49.7427C65.8529 52.309 69.8148 53.0947 72.344 51.3683C73.3061 50.7265 74.0192 49.7321 74.482 48.6882C75.1996 47.097 75.4665 45.3494 75.6838 43.6521C76.2796 39.112 76.3716 34.4638 76.3638 29.9189C76.3351 27.5192 76.4062 25.1719 76.1797 22.7704C76.0438 21.1205 75.7583 19.3201 74.7134 18.0617C73.3972 16.4269 71.5314 15.6533 69.6706 15.6533C67.176 15.6533 64.6891 17.0416 63.5434 19.6059Z" fill="white"/>
</mask>
<g mask="url(#mask2_91_7451)">
<path d="M61.8075 15.5197L76.7514 15.6567L76.4036 53.2284L61.4592 53.0913L61.8075 15.5197Z" fill="url(#paint2_linear_91_7451)"/>
</g>
<mask id="mask3_91_7451" style="mask-type:luminance" maskUnits="userSpaceOnUse" x="80" y="15" width="30" height="38">
<path d="M93.6566 35.9193C93.7482 34.4202 94.0322 26.0316 93.9722 24.531C93.9333 24.0791 93.9489 23.5797 94.0628 23.0837C94.5022 21.6959 96.2745 21.2953 97.354 22.2733C99.2168 23.973 99.3225 29.2261 98.8524 31.6601C98.5655 32.9045 98.127 34.2419 97.1981 35.1172C96.4976 35.7014 95.4882 36.0206 94.5412 36.0206C94.2358 36.0206 93.9372 35.9871 93.6566 35.9193ZM82.1826 38.1528C82.0905 37.9 82.0257 36.5485 82.0335 36.2991C81.9531 35.5996 81.7607 31.5943 81.732 30.8924C81.7183 29.5943 81.8917 23.3501 82.1777 22.1086C82.2342 21.8102 82.4159 20.6642 82.5221 20.4675C83.1612 19.2362 85.0489 20.0858 84.4092 21.3176C84.2509 21.5637 84.0688 22.7097 84.0605 23.0096C83.8836 24.0539 83.7706 29.8495 83.7404 30.9481C83.7638 31.9474 83.9801 36.8028 84.153 37.8075C84.3289 38.5674 83.7916 38.9947 83.2275 38.9947C82.7827 38.9947 82.3219 38.7292 82.1826 38.1528ZM84.4472 18.1187C84.6216 17.2759 85.7367 17.0061 86.219 17.7201C86.7032 18.3338 86.3276 19.2227 85.6222 19.3515C85.5365 19.3709 85.4537 19.381 85.3738 19.381C84.7405 19.381 84.2972 18.7824 84.4472 18.1187ZM88.8471 15.4421C86.6754 15.7322 84.3484 16.3173 82.6492 17.7211C82.0315 18.205 81.6087 18.9422 81.3369 19.6862C81.1708 20.2316 80.9477 22.9229 80.8799 23.4707C80.6432 26.6652 80.7552 29.8655 80.8683 33.0682C80.8989 35.5183 80.9306 37.9678 80.8653 40.4149C80.8059 42.4633 80.4337 48.6009 81.6983 50.2362C83.5875 52.787 87.3404 53.3886 89.9066 51.5106C91.0869 50.6417 91.879 49.267 92.3189 47.8787C92.8659 46.2943 93.0637 44.5995 93.2625 42.9036C94.7117 43.1938 96.2194 43.2359 97.6818 43.0252C100.408 42.6024 103.159 41.3279 105.171 39.4321C106.668 38.0254 107.728 36.1048 108.334 34.1712C109.325 30.9995 109.525 27.4053 108.711 24.1847C108.259 22.3232 107.357 20.4477 105.985 19.1616C104.369 17.6169 102.234 16.6094 100.09 16.0001C97.9297 15.3999 95.6509 15.1582 93.3658 15.1582C91.8517 15.1582 90.3348 15.2643 88.8471 15.4421Z" fill="white"/>
</mask>
<g mask="url(#mask3_91_7451)">
<path d="M80.4573 14.3605L110.585 15.1868L109.504 54.1859L79.3754 53.3601L80.4573 14.3605Z" fill="url(#paint3_linear_91_7451)"/>
</g>
<mask id="mask4_91_7451" style="mask-type:luminance" maskUnits="userSpaceOnUse" x="110" y="14" width="30" height="41">
<path d="M115.668 42.8862C115.477 42.0831 115.856 38.3572 115.892 37.5415C115.907 36.828 116.356 33.3376 116.477 32.6469C116.731 31.2063 116.932 29.758 117.291 28.3383C117.68 26.7587 119.814 27.1864 119.426 28.766C119.065 30.1847 118.81 31.6243 118.612 33.0736C118.142 35.7377 118.004 38.4057 117.864 41.0708C117.81 41.3914 117.94 42.8412 117.774 43.1439C117.597 43.5958 117.229 43.8017 116.844 43.8017C116.356 43.8017 115.842 43.4684 115.668 42.8862ZM117.975 25.7115C117.61 24.331 119.334 23.6422 119.994 24.9117C120.464 25.7086 119.644 26.3954 118.899 26.3959C118.499 26.3959 118.121 26.1968 117.975 25.7115ZM128.626 18.562C127.789 17.9768 128.186 16.6729 129.186 16.6249C130.637 16.5498 132.072 17.1834 133.426 17.6387C133.684 17.74 134.846 18.0519 135.041 18.1948C136.323 19.0788 135.107 20.9539 133.879 20.081C133.685 19.9357 133.461 19.9522 133.257 19.8625C132.052 19.4886 130.841 18.8376 129.528 18.7746C129.504 18.7746 129.478 18.7746 129.453 18.7746C129.183 18.7746 128.843 18.7504 128.626 18.562ZM115.325 14.4302C113.863 14.56 112.124 15.026 111.256 16.1929C109.954 17.9449 109.438 20.8754 110.926 22.4521C112.328 23.9047 114.653 24.1992 116.644 24.4923C115.367 29.542 114.83 34.7762 114.253 39.9455C114.019 42.2124 113.784 44.4779 113.765 46.7821C113.728 47.9286 113.746 49.0863 113.933 50.2169C114.166 51.4104 115.032 52.4397 115.958 53.1508C118.055 54.724 120.825 54.988 123.071 53.8405C124.23 53.2186 125.097 52.0507 125.734 50.9565C126.571 49.3416 127.201 47.6399 127.725 45.9194C129.546 39.976 130.474 33.7663 131.402 27.5589C133.457 27.8064 135.728 28.0912 137.561 27.0929C138.298 26.673 138.858 26.0002 139.268 25.2479C140.129 23.8044 140.27 21.7449 139.478 20.2888C139.241 19.7531 138.7 19.3825 138.255 19.087C134.944 17.1902 131.222 16.049 127.492 15.2885C124.505 14.6859 121.382 14.3101 118.292 14.3101C117.297 14.3096 116.307 14.3478 115.325 14.4302Z" fill="white"/>
</mask>
<g mask="url(#mask4_91_7451)">
<path d="M110.356 9.09766L147.224 15.5211L139.351 60.1995L102.483 53.7757L110.356 9.09766Z" fill="url(#paint4_linear_91_7451)"/>
</g>
<mask id="mask5_91_7451" style="mask-type:luminance" maskUnits="userSpaceOnUse" x="36" y="15" width="26" height="39">
<path d="M39.3973 39.0082C39.1854 38.8189 39.0217 38.5762 38.9077 38.2826C38.4946 37.1037 37.9636 31.6761 37.9003 30.4284C37.8594 29.6306 37.6353 25.2411 37.6431 24.4385C37.6782 24.1343 37.7478 22.5315 37.8336 22.2767C37.9797 21.2183 39.4864 21.1447 39.7909 22.1774C39.8562 22.4734 39.6852 24.0345 39.6525 24.3862C39.6321 24.9374 39.7826 27.8825 39.8113 28.4322C39.9414 30.9762 40.1738 33.5168 40.5537 36.0477C40.5659 36.2967 40.7798 37.4892 40.8913 37.7329C41.244 38.458 40.6741 39.1996 39.9853 39.1996C39.7928 39.1991 39.5907 39.141 39.3973 39.0082ZM38.7309 20.1808C38.3446 19.4498 38.8541 18.6245 39.6584 18.6317C40.5148 18.64 41.0136 19.5138 40.5455 20.1895C40.3111 20.5014 39.956 20.6564 39.6106 20.6564C39.2628 20.656 38.9248 20.4976 38.7309 20.1808ZM37.1959 20.609C36.3351 23.4547 36.4939 26.5494 36.7482 29.5376C37.0064 32.627 37.3172 35.7125 37.6752 38.7961C37.9982 41.1802 38.2759 43.6191 38.8039 46.0429C39.2604 48.1209 40.5757 50.2077 42.3459 51.3668C44.3222 52.616 46.8096 53.0428 49.1244 53.0243C52.5933 53.0001 56.1616 51.9166 59.1434 50.2159C61.7345 48.7322 61.9741 44.6179 59.6139 42.7346C58.9855 42.2681 57.9825 42.3185 57.2416 42.5554C55.7022 42.9855 54.0635 43.4186 52.5807 42.9429C51.8626 42.6794 51.4179 41.8506 51.2298 41.1119C50.9721 40.025 51.0598 38.8198 51.055 37.7159C51.0389 34.4652 50.8698 31.1709 50.6536 27.9319C50.5313 25.5855 50.3126 23.2455 49.8902 20.9161C49.6159 19.477 48.8317 17.9686 47.6299 17.0778C46.6892 16.3755 45.5094 15.9865 44.3495 15.8935C44.1196 15.8693 43.8897 15.8577 43.6617 15.8577C40.7291 15.8562 38.0318 17.8277 37.1959 20.609Z" fill="white"/>
</mask>
<g mask="url(#mask5_91_7451)">
<path d="M61.9433 14.9883L63.2464 52.9997L36.3647 53.9108L35.0616 15.8994L61.9433 14.9883Z" fill="url(#paint5_linear_91_7451)"/>
</g>
<mask id="mask6_91_7451" style="mask-type:luminance" maskUnits="userSpaceOnUse" x="62" y="15" width="15" height="38">
<path d="M64.0164 39.0984C63.9672 38.9487 63.9272 37.9495 63.9272 37.7489C63.7431 35.9969 63.7095 34.1998 63.6252 32.4507C63.4912 30.3994 63.462 28.3025 63.5331 26.2521C63.538 25.6529 63.8132 22.9583 63.9199 22.4599C64.1255 21.6611 64.4972 19.6645 65.2537 19.3216C66.1125 18.9307 67.0586 19.8379 66.6498 20.6851C66.4959 20.981 66.2918 21.2785 66.1866 21.5797C65.4096 24.3703 65.4325 27.3202 65.5031 30.2177C65.5421 31.466 65.7394 37.5658 66.0283 38.7671C66.1905 39.5242 65.6293 39.9611 65.0545 39.9611C64.6029 39.9621 64.143 39.6932 64.0164 39.0984ZM67.1175 18.89C66.3663 18.5354 66.3766 17.4339 67.136 17.09C67.8414 16.7979 68.5901 17.2557 68.5823 18.0026C68.5784 18.5819 68.1249 19.0086 67.5959 19.0086C67.44 19.0086 67.2773 18.9709 67.1175 18.89ZM63.5434 19.6059C63.1322 20.5025 62.9223 21.4499 62.7635 22.3983C61.8067 27.885 62.308 33.5871 62.5569 39.1851C62.6899 41.1871 63.0265 48.0832 64.1187 49.7427C65.8529 52.309 69.8148 53.0947 72.344 51.3683C73.3061 50.7265 74.0192 49.7321 74.482 48.6882C75.1996 47.097 75.4665 45.3494 75.6838 43.6521C76.2796 39.112 76.3716 34.4638 76.3638 29.9189C76.3351 27.5192 76.4062 25.1719 76.1797 22.7704C76.0438 21.1205 75.7583 19.3201 74.7134 18.0617C73.3972 16.4269 71.5314 15.6533 69.6706 15.6533C67.176 15.6533 64.6891 17.0416 63.5434 19.6059Z" fill="white"/>
</mask>
<g mask="url(#mask6_91_7451)">
<path d="M76.3889 15.1592L77.6876 53.0505L61.8235 53.5882L60.5248 15.6964L76.3889 15.1592Z" fill="url(#paint6_linear_91_7451)"/>
</g>
<mask id="mask7_91_7451" style="mask-type:luminance" maskUnits="userSpaceOnUse" x="110" y="14" width="30" height="41">
<path d="M115.668 42.8862C115.477 42.0831 115.856 38.3572 115.892 37.5415C115.907 36.828 116.356 33.3376 116.477 32.6469C116.731 31.2063 116.932 29.758 117.291 28.3383C117.68 26.7587 119.814 27.1864 119.426 28.766C119.065 30.1847 118.81 31.6243 118.612 33.0736C118.142 35.7377 118.004 38.4057 117.864 41.0708C117.81 41.3914 117.94 42.8412 117.774 43.1439C117.597 43.5958 117.229 43.8017 116.844 43.8017C116.356 43.8017 115.842 43.4684 115.668 42.8862ZM117.975 25.7115C117.61 24.331 119.334 23.6422 119.994 24.9117C120.464 25.7086 119.644 26.3954 118.899 26.3959C118.499 26.3959 118.121 26.1968 117.975 25.7115ZM128.626 18.562C127.789 17.9768 128.186 16.6729 129.186 16.6249C130.637 16.5498 132.072 17.1834 133.426 17.6387C133.684 17.74 134.846 18.0519 135.041 18.1948C136.323 19.0788 135.107 20.9539 133.879 20.081C133.685 19.9357 133.461 19.9522 133.257 19.8625C132.052 19.4886 130.841 18.8376 129.528 18.7746C129.504 18.7746 129.478 18.7746 129.453 18.7746C129.183 18.7746 128.843 18.7504 128.626 18.562ZM115.325 14.4302C113.863 14.56 112.124 15.026 111.256 16.1929C109.954 17.9449 109.438 20.8754 110.926 22.4521C112.328 23.9047 114.653 24.1992 116.644 24.4923C115.367 29.542 114.83 34.7762 114.253 39.9455C114.019 42.2124 113.784 44.4779 113.765 46.7821C113.728 47.9286 113.746 49.0863 113.933 50.2169C114.166 51.4104 115.032 52.4397 115.958 53.1508C118.055 54.724 120.825 54.988 123.071 53.8405C124.23 53.2186 125.097 52.0507 125.734 50.9565C126.571 49.3416 127.201 47.6399 127.725 45.9194C129.546 39.976 130.474 33.7663 131.402 27.5589C133.457 27.8064 135.728 28.0912 137.561 27.0929C138.298 26.673 138.858 26.0002 139.268 25.2479C140.129 23.8044 140.27 21.7449 139.478 20.2888C139.241 19.7531 138.7 19.3825 138.255 19.087C134.944 17.1902 131.222 16.049 127.492 15.2885C124.505 14.6859 121.382 14.3101 118.292 14.3101C117.297 14.3096 116.307 14.3478 115.325 14.4302Z" fill="white"/>
</mask>
<g mask="url(#mask7_91_7451)">
<path d="M140.234 13.2657L141.662 54.9401L109.473 56.0314L108.045 14.3561L140.234 13.2657Z" fill="url(#paint7_linear_91_7451)"/>
</g>
<defs>
<linearGradient id="paint0_linear_91_7451" x1="11.2592" y1="17.432" x2="27.9901" y2="50.1626" gradientUnits="userSpaceOnUse">
<stop stop-color="#33A2DB"/>
<stop offset="1" stop-color="#134B97"/>
</linearGradient>
<linearGradient id="paint1_linear_91_7451" x1="37.0549" y1="35.1311" x2="60.6807" y2="33.9181" gradientUnits="userSpaceOnUse">
<stop stop-color="#33A2DB"/>
<stop offset="1" stop-color="#134B97"/>
</linearGradient>
<linearGradient id="paint2_linear_91_7451" x1="62.0686" y1="34.2237" x2="76.2501" y2="34.355" gradientUnits="userSpaceOnUse">
<stop stop-color="#33A2DB"/>
<stop offset="1" stop-color="#134B97"/>
</linearGradient>
<linearGradient id="paint3_linear_91_7451" x1="80.5999" y1="33.8938" x2="109.103" y2="34.6845" gradientUnits="userSpaceOnUse">
<stop stop-color="#33A2DB"/>
<stop offset="1" stop-color="#134B97"/>
</linearGradient>
<linearGradient id="paint4_linear_91_7451" x1="107.845" y1="31.7781" x2="137.531" y2="37.0092" gradientUnits="userSpaceOnUse">
<stop stop-color="#33A2DB"/>
<stop offset="1" stop-color="#134B97"/>
</linearGradient>
<linearGradient id="paint5_linear_91_7451" x1="48.7025" y1="23.1737" x2="49.9812" y2="60.9064" gradientUnits="userSpaceOnUse">
<stop stop-color="#33A2DB"/>
<stop offset="0.1078" stop-color="#33A2DB"/>
<stop offset="0.7786" stop-color="#134B97"/>
<stop offset="1" stop-color="#134B97"/>
</linearGradient>
<linearGradient id="paint6_linear_91_7451" x1="68.6376" y1="22.4981" x2="69.9164" y2="60.234" gradientUnits="userSpaceOnUse">
<stop stop-color="#33A2DB"/>
<stop offset="0.1078" stop-color="#33A2DB"/>
<stop offset="0.7786" stop-color="#134B97"/>
<stop offset="1" stop-color="#134B97"/>
</linearGradient>
<linearGradient id="paint7_linear_91_7451" x1="124.331" y1="20.6107" x2="125.61" y2="58.3434" gradientUnits="userSpaceOnUse">
<stop stop-color="#33A2DB"/>
<stop offset="0.1078" stop-color="#33A2DB"/>
<stop offset="0.7786" stop-color="#134B97"/>
<stop offset="1" stop-color="#134B97"/>
</linearGradient>
</defs>
</svg>
